<svg xmlns="http://www.w3.org/2000/svg" xmlns:xlink="http://www.w3.org/1999/xlink" version="1.1" x="0px" y="0px" viewBox="0 0 58.35 59" enable-background="new 0 0 58.35 59" xml:space="preserve"><g><path d="M27.52,34c0-3.86-3.14-7-7-7s-7,3.14-7,7s3.14,7,7,7S27.52,37.86,27.52,34z M20.52,39c-2.76,0-5-2.24-5-5s2.24-5,5-5   s5,2.24,5,5S23.28,39,20.52,39z"></path><circle cx="18.52" cy="32" r="2"></circle><path d="M38.52,27c-3.86,0-7,3.14-7,7s3.14,7,7,7s7-3.14,7-7S42.38,27,38.52,27z M38.52,39c-2.76,0-5-2.24-5-5s2.24-5,5-5   s5,2.24,5,5S41.28,39,38.52,39z"></path><circle cx="36.52" cy="32" r="2"></circle><path d="M30.3,44.1c-4.56,0.69-7.49,4.87-7.61,5.04c-0.31,0.46-0.2,1.08,0.26,1.39c0.17,0.12,0.37,0.18,0.57,0.18   c0.32,0,0.63-0.15,0.82-0.43c0.03-0.04,2.55-3.64,6.26-4.2c1.97-0.3,3.97,0.34,5.93,1.89c0.43,0.34,1.06,0.27,1.41-0.17   c0.34-0.43,0.27-1.06-0.17-1.41C35.36,44.48,32.85,43.71,30.3,44.1z"></path><path d="M58.07,43.66c-2.1-4.71-2.76-13.61-2.96-18.5c-0.19-4.62-1.57-8.96-3.98-12.55c-4.31-6.42-9.09-9.04-12.31-10.45   c-6.56-2.87-14.08-2.87-20.64,0c-3.79,1.66-8.13,4.07-11.55,9.42c-2.29,3.58-3.55,7.9-3.64,12.49c-0.1,5.27-0.59,14.85-2.73,19.78   c-0.68,1.57,0.04,3.41,1.59,4.09c0.89,0.4,2.61,0.63,4.75,0.9c0.14,0.02,0.26,0.03,0.4,0.05V50c0,2.66,2.34,5,5.01,5h2.51v1.69   c0,1.27,1.03,2.31,2.31,2.31h23.39c1.27,0,2.31-1.03,2.31-2.31V55h3.29c2.71,0,5.18-2.38,5.18-5v-1.16   c0.54-0.09,1.1-0.17,1.66-0.25c1.45-0.2,2.82-0.4,3.71-0.74c0.8-0.31,1.43-0.92,1.75-1.72C58.44,45.33,58.43,44.45,58.07,43.66z    M40.52,56.7c0,0.17-0.14,0.31-0.31,0.31H16.83c-0.17,0-0.31-0.14-0.31-0.31V55h24V56.7z M49,50c0,1.51-1.58,3-3.18,3h-3.29h-28   h-2.51C10.46,53,9,51.54,9,50V27.94c4.04-0.28,19.39-1.8,25.82-9.08c1.68,3.12,6.09,10.12,11.8,10.12c0,0,0,0,0,0   c0.8,0,1.59-0.14,2.38-0.41V50z M56.26,45.37c-0.12,0.28-0.34,0.5-0.63,0.61c-0.67,0.26-1.99,0.44-3.26,0.62   c-0.46,0.06-0.92,0.13-1.38,0.2V27c0-0.36-0.19-0.69-0.5-0.87c-0.31-0.18-0.69-0.18-1,0.01c-0.94,0.56-1.91,0.84-2.87,0.84   c0,0,0,0,0,0c-5.91,0-10.67-10.29-10.71-10.39c-0.15-0.33-0.47-0.55-0.83-0.58c-0.36-0.03-0.71,0.14-0.91,0.44   C28.38,25.05,8.16,25.99,7.95,26C7.42,26.03,7,26.47,7,27v19.86c-0.05-0.01-0.1-0.01-0.15-0.02c-1.39-0.17-3.49-0.44-4.19-0.74   c-0.57-0.25-0.81-0.9-0.57-1.47c2.27-5.25,2.78-15.12,2.89-20.53c0.08-4.22,1.23-8.17,3.33-11.45c3.13-4.89,7.15-7.13,10.66-8.66   c6.05-2.65,12.99-2.65,19.04,0c2.99,1.31,7.44,3.74,11.45,9.73c2.21,3.29,3.47,7.27,3.65,11.52c0.26,6.15,1.01,14.47,3.14,19.23   C56.38,44.76,56.38,45.08,56.26,45.37z"></path></g></svg>