<svg xmlns="http://www.w3.org/2000/svg" xmlns:xlink="http://www.w3.org/1999/xlink" version="1.1" x="0px" y="0px" viewBox="0 0 100 100" enable-background="new 0 0 100 100" xml:space="preserve"><g><g><path d="M17.948,38.014c0.303,0.102,0.638,0.05,0.897-0.138l3.424-2.471c0.192-0.139,0.329-0.341,0.384-0.571    c0.067-0.276,0.229-0.665,0.625-0.951c0.713-0.514,1.787-0.337,2.297,0.372c0.531,0.736,0.364,1.767-0.371,2.298    c-0.311,0.225-0.7,0.328-1.094,0.294c-0.238-0.02-0.474,0.047-0.666,0.185l-3.425,2.473c-0.259,0.187-0.413,0.489-0.413,0.809    c0,0.32,0.156,0.62,0.417,0.808c1.239,0.883,2.702,1.349,4.229,1.349c1.527,0,2.993-0.474,4.236-1.372    c2.308-1.667,3.337-4.447,2.9-7.081l1.327-0.908l1.295,1.803l25.254-17.28c-1.518-2.287-2.964-3.354-5.024-3.354    c-0.445,0-0.921,0.05-1.431,0.148c-2.868,0.553-10.367,2.38-10.367,2.38c-1.216,0.296-3.065,1.107-4.107,1.801L27.498,25.85    l1.843,2.564l-1.1,0.752c-1.174-0.773-2.564-1.207-4.004-1.207c-1.531,0-2.999,0.475-4.244,1.375    c-2.524,1.822-3.602,5.049-2.681,8.025C17.407,37.67,17.644,37.912,17.948,38.014z M39.439,20.267    c0.857-0.57,2.479-1.283,3.474-1.525c0.075-0.018,7.485-1.822,10.275-2.359c0.387-0.075,0.74-0.111,1.053-0.111    c0.719,0,1.376,0.186,2.143,0.928L34.493,32.177l-4.178-5.813L39.439,20.267z M30.503,30.034l1.053,1.464l-0.797,0.544    c-0.18-0.368-0.386-0.727-0.634-1.072c-0.11-0.152-0.234-0.292-0.355-0.435L30.503,30.034z M21.159,30.949    c0.903-0.652,1.968-0.998,3.08-0.998c1.691,0,3.288,0.816,4.274,2.182c1.701,2.357,1.168,5.656-1.186,7.355    c-1.392,1.004-3.23,1.258-4.842,0.69l1.853-1.338c0.74-0.016,1.441-0.248,2.033-0.676c1.623-1.171,1.99-3.446,0.819-5.075    c-0.681-0.944-1.784-1.507-2.949-1.507c-0.767,0-1.502,0.238-2.125,0.689c-0.588,0.425-1.034,1.025-1.281,1.716l-1.854,1.34    C18.941,33.628,19.731,31.979,21.159,30.949z M36.218,72.209l7.717,7.715l1.405-1.405l-7.717-7.715L36.218,72.209z M83.364,21.903    c-1.408,0-2.73-0.547-3.727-1.543c-0.995-0.995-1.543-2.318-1.543-3.725c0-0.549-0.444-0.995-0.994-0.995    c-0.551,0-0.994,0.446-0.994,0.995c0,1.938,0.754,3.76,2.126,5.131c1.371,1.371,3.192,2.125,5.13,2.125h0.001    c0.549,0,0.994-0.446,0.994-0.995C84.357,22.347,83.912,21.903,83.364,21.903z M87.269,18.295c-0.58-0.584-1.524-0.587-2.11-0.007    c-0.584,0.582-0.587,1.524-0.006,2.11l0.08,0.081c0.292,0.294,0.675,0.439,1.058,0.439c0.381,0,0.761-0.145,1.052-0.434    c0.584-0.58,0.588-1.525,0.006-2.11L87.269,18.295z M82.364,40.735L65.086,65.989l1.802,1.295l-0.902,1.321    c-0.394-0.066-0.793-0.104-1.199-0.104c-2.327,0-4.528,1.126-5.888,3.009c-1.823,2.524-1.831,5.926-0.021,8.465    c0.186,0.262,0.487,0.417,0.808,0.419h0.003c0.318,0,0.619-0.153,0.806-0.414l2.474-3.423c0.139-0.193,0.205-0.43,0.185-0.666    c-0.022-0.281,0.009-0.7,0.295-1.095c0.511-0.706,1.587-0.885,2.297-0.372c0.737,0.532,0.903,1.563,0.373,2.298    c-0.288,0.396-0.675,0.558-0.947,0.624c-0.231,0.058-0.435,0.19-0.574,0.385l-2.471,3.428c-0.188,0.259-0.239,0.594-0.138,0.896    c0.103,0.305,0.344,0.54,0.649,0.636c0.694,0.215,1.416,0.322,2.145,0.322c2.324,0,4.522-1.124,5.882-3.002    c1.136-1.572,1.588-3.49,1.28-5.406c-0.167-1.035-0.553-1.997-1.112-2.843l0.752-1.101l2.564,1.843l7.24-10.838    c0.695-1.04,1.508-2.891,1.804-4.104c0,0,1.826-7.5,2.38-10.369C86.123,44.321,85.147,42.581,82.364,40.735z M69.052,78.842    c-1.01,1.394-2.659,2.208-4.38,2.179l1.339-1.854c0.69-0.245,1.293-0.69,1.719-1.281c1.171-1.623,0.804-3.9-0.822-5.074    c-0.623-0.448-1.357-0.687-2.125-0.687c-1.164,0-2.266,0.563-2.947,1.507c-0.427,0.588-0.661,1.297-0.678,2.032l-1.34,1.854    c-0.569-1.603-0.339-3.416,0.691-4.844c0.986-1.366,2.588-2.183,4.275-2.183c1.112,0,2.176,0.344,3.079,0.998    c1.14,0.821,1.892,2.04,2.114,3.43C70.204,76.309,69.874,77.702,69.052,78.842z M67.959,69.241l0.544-0.798l1.465,1.053    l-0.498,0.729c-0.144-0.12-0.286-0.24-0.439-0.351C68.689,69.63,68.33,69.421,67.959,69.241z M83.617,46.813    c-0.537,2.785-2.342,10.199-2.36,10.273c-0.242,0.997-0.955,2.62-1.524,3.473l-6.095,9.126l-5.813-4.176l14.979-21.896    C83.793,44.632,83.863,45.538,83.617,46.813z M97.779,13.197l-1.062-1.057l2.473-2.476c0.412-0.41,0.412-1.081,0-1.49    l-7.365-7.366C91.621,0.603,91.35,0.5,91.08,0.5s-0.539,0.103-0.745,0.309l-2.476,2.476l-1.058-1.059    c-1.148-1.148-2.662-1.723-4.174-1.723c-1.515,0-3.028,0.574-4.177,1.723l-9.362,9.363c-2.108,2.107-2.256,5.433-0.497,7.741    l-1.665,1.667l-4.025-4.025c-0.254-0.254-0.621-0.385-0.984-0.385c-0.271,0-0.541,0.071-0.762,0.224L32.438,36.457    c-0.517,0.354-0.577,1.006-0.135,1.449l0.805,0.805L9.357,62.462L8.955,62.06L0.5,70.516l14.091,14.088l17.161-17.16l0.805,0.806    L15.396,85.408L29.486,99.5l8.455-8.454l-0.401-0.401L61.29,66.89l0.806,0.807c0.199,0.197,0.439,0.296,0.678,0.296    c0.29,0,0.576-0.147,0.771-0.432l19.647-28.717c0.354-0.516,0.28-1.3-0.163-1.745l-4.024-4.026l1.668-1.665    c1.051,0.8,2.301,1.225,3.566,1.225c1.513,0,3.027-0.574,4.175-1.723l9.365-9.362C100.074,19.251,100.072,15.495,97.779,13.197z     M91.08,2.874l6.044,6.044l-1.814,1.814l-6.043-6.044L91.08,2.874z M69.697,21.037l9.267,9.264l-1.258,1.257l-9.265-9.264    L69.697,21.037z M14.591,81.793L3.313,70.516l5.437-5.439l11.278,11.279L14.591,81.793z M29.74,65.43l0.56,0.654l-8.66,8.66    L10.764,63.868l19.325-19.323l10.268,10.269L29.74,65.43z M41.967,56.424l1.61,1.61l-9.212,9.212l-1.608-1.611L41.967,56.424z     M29.486,96.689L18.209,85.408l5.437-5.438L34.924,91.25L29.486,96.689z M36.132,89.238L25.257,78.362l8.66-8.661l0.654,0.56    l10.617-10.617l10.269,10.27L36.132,89.238z M57.065,68.304l-25.367-25.37l2.818-2.818l25.369,25.369L57.065,68.304z     M81.262,38.145L62.778,65.157L34.842,37.223L61.856,18.74L81.262,38.145z M96.369,20.143l-9.364,9.363    c-0.734,0.735-1.717,1.139-2.768,1.139s-2.035-0.404-2.77-1.139L70.494,18.532c-1.526-1.526-1.526-4.011,0-5.538l9.363-9.363    c0.734-0.736,1.718-1.139,2.771-1.139c1.05,0,2.033,0.403,2.768,1.138l10.973,10.973C97.896,16.131,97.896,18.616,96.369,20.143z     M20.077,56.067l7.717,7.715l1.407-1.407l-7.717-7.715L20.077,56.067z M79.602,14.848c0.292,0.289,0.672,0.434,1.053,0.434    c0.384,0,0.765-0.146,1.057-0.441c0.581-0.584,0.578-1.528-0.006-2.109l-0.081-0.079c-0.584-0.58-1.527-0.578-2.109,0.006    c-0.58,0.584-0.576,1.53,0.006,2.11L79.602,14.848z"></path></g></g></svg>