<svg xmlns="http://www.w3.org/2000/svg" xmlns:xlink="http://www.w3.org/1999/xlink" version="1.1" x="0px" y="0px" viewBox="0 0 100 100" style="enable-background:new 0 0 100 100;" xml:space="preserve"><path d="M95,48.11c0-12.419-19.767-22.146-45-22.146c-25.234,0-45,9.728-45,22.146c0,0.307,0.021,0.61,0.045,0.914l-0.02,0.222  c-0.011,0.318,0.001,0.438,0.001,0.667c0.009,1.632,0.351,3.285,0.963,4.83c1.229,3.109,3.427,5.736,5.95,7.865  c5.088,4.281,11.365,7.008,17.866,8.797c3.253,0.928,6.603,1.555,9.984,1.967c1.689,0.221,3.39,0.367,5.092,0.482  c0.849,0.064,1.725,0.086,2.586,0.131l2.498,0.053c3.481-0.027,6.848-0.248,10.242-0.67c3.383-0.404,6.729-1.051,9.982-1.975  c6.501-1.785,12.771-4.521,17.861-8.795c2.518-2.131,4.718-4.754,5.945-7.859c0.708-1.729,1.003-3.596,0.937-5.413  C94.977,48.922,95,48.518,95,48.11z M50,67.695c-22.519,0-41.605-8.596-42.401-18.917l0.005-0.495l0.052-0.452  c0.025-0.299,0.061-0.605,0.14-0.927c0.064-0.317,0.122-0.637,0.23-0.944c0.701-2.467,2.261-4.632,4.025-6.459  C19.096,33.062,33.641,28.524,50,28.524c16.418,0,31.012,4.569,38.025,11.044c1.736,1.811,3.266,3.951,3.96,6.389  c0.267,0.888,0.402,1.807,0.421,2.729C91.718,59.049,72.586,67.695,50,67.695z M22.773,52.666c-0.402,1.281-2.174,1.869-3.958,1.309  c-1.783-0.559-2.902-2.053-2.499-3.337c0.403-1.283,2.175-1.871,3.958-1.311C22.059,49.886,23.177,51.381,22.773,52.666z   M37.779,49.166c-1.243-0.513-1.675-2.328-0.964-4.056c0.712-1.729,2.297-2.714,3.542-2.202c1.244,0.511,1.675,2.328,0.963,4.055  C40.609,48.692,39.024,49.678,37.779,49.166z M74.618,55.633c0.57,1.217-0.342,2.848-2.035,3.639  c-1.691,0.793-3.525,0.447-4.096-0.771s0.339-2.85,2.031-3.641C72.213,54.066,74.047,54.414,74.618,55.633z M76.321,49.124  c-0.403,1.283-2.175,1.87-3.959,1.31c-1.783-0.559-2.901-2.053-2.498-3.337c0.402-1.283,2.175-1.871,3.958-1.311  C75.605,46.345,76.724,47.839,76.321,49.124z M61.195,42.744c-0.354,1.13-1.495,1.779-2.549,1.447  c-1.055-0.329-1.62-1.514-1.265-2.646s1.498-1.781,2.551-1.45C60.985,40.427,61.551,41.613,61.195,42.744z M36.579,34.323  c0.355-1.131,1.498-1.781,2.551-1.45c1.053,0.332,1.618,1.517,1.263,2.648c-0.355,1.13-1.495,1.779-2.549,1.448  C36.789,36.64,36.223,35.455,36.579,34.323z M32.709,55.529c-0.355,1.131-1.496,1.779-2.549,1.449  c-1.054-0.33-1.62-1.516-1.264-2.646c0.355-1.131,1.498-1.781,2.551-1.451C32.5,53.213,33.065,54.398,32.709,55.529z M56.558,62.434  c-0.354,1.131-1.495,1.777-2.55,1.447c-1.054-0.33-1.619-1.516-1.264-2.645c0.355-1.133,1.498-1.781,2.551-1.451  C56.348,60.117,56.913,61.303,56.558,62.434z M49.894,47.827c-0.354,1.13-1.495,1.778-2.55,1.448  c-1.054-0.33-1.619-1.516-1.264-2.646c0.354-1.132,1.498-1.78,2.551-1.45C49.684,45.509,50.249,46.695,49.894,47.827z   M16.442,44.878c-0.355,1.13-1.495,1.778-2.549,1.447c-1.054-0.33-1.62-1.515-1.264-2.646c0.355-1.132,1.498-1.781,2.551-1.451  C16.232,42.561,16.797,43.747,16.442,44.878z M45.335,62.133c-0.402,1.283-2.174,1.869-3.958,1.309  c-1.783-0.559-2.901-2.053-2.499-3.338c0.403-1.283,2.175-1.871,3.958-1.311C44.62,59.354,45.738,60.848,45.335,62.133z   M26.333,42.341c-2.042,0.729-4.145,0.063-4.697-1.485c-0.552-1.549,0.655-3.395,2.697-4.124c2.042-0.728,4.146-0.062,4.698,1.486  C29.583,39.767,28.375,41.613,26.333,42.341z M61.201,54.086c0,1.645-1.757,2.979-3.926,2.979c-2.167,0-3.925-1.334-3.925-2.979  c0-1.643,1.758-2.979,3.925-2.979C59.444,51.107,61.201,52.443,61.201,54.086z M51.451,37.167c-2.163-0.147-3.826-1.596-3.715-3.237  s1.957-2.853,4.118-2.706c2.164,0.147,3.825,1.597,3.714,3.237C55.458,36.103,53.613,37.314,51.451,37.167z M88.061,45.393  c-0.111,1.641-1.956,2.852-4.118,2.705c-2.162-0.147-3.825-1.597-3.715-3.237c0.112-1.64,1.957-2.852,4.119-2.705  C86.51,42.303,88.171,43.752,88.061,45.393z M68.216,39.378c-1.804-0.986-2.809-2.624-2.243-3.656  c0.563-1.033,2.484-1.071,4.289-0.085c1.804,0.987,2.807,2.624,2.243,3.657C71.939,40.327,70.021,40.365,68.216,39.378z"></path></svg>