<svg xmlns="http://www.w3.org/2000/svg" xmlns:xlink="http://www.w3.org/1999/xlink" version="1.1" x="0px" y="0px" viewBox="0 0 52 60" enable-background="new 0 0 52 60" xml:space="preserve"><g><path d="M17,43c2.76,0,5-2.24,5-5s-2.24-5-5-5s-5,2.24-5,5S14.24,43,17,43z M17,35c1.65,0,3,1.35,3,3s-1.35,3-3,3s-3-1.35-3-3   S15.35,35,17,35z"></path><path d="M49,24.08h-1.34l-0.74-1.48c-3.32-7.62,0.99-21.16,1.03-21.29c0.1-0.3,0.05-0.64-0.14-0.9C47.62,0.15,47.32,0,47,0H5   C4.65,0,4.33,0.18,4.14,0.48c-0.18,0.3-0.19,0.67-0.03,0.98C8.16,9.2,8.42,14.93,5.11,22.55l-0.76,1.52H3c-1.65,0-3,1.35-3,3V28   c0,1.65,1.35,3,3,3h1v20c0,2.76,2.24,5,5,5h3v1.69c0,1.27,1.03,2.31,2.31,2.31h23.39c1.27,0,2.31-1.03,2.31-2.31V56h3   c2.76,0,5-2.24,5-5V31h1c1.65,0,3-1.35,3-3v-0.92C52,25.42,50.65,24.08,49,24.08z M6.62,2h39.04c-0.54,1.94-1.49,5.78-1.85,10H9.35   C9.21,8.77,8.31,5.55,6.62,2z M43.68,16H9.14c0.1-0.67,0.17-1.34,0.21-2h34.35C43.67,14.67,43.66,15.33,43.68,16z M6.92,23.4   c0.82-1.88,1.43-3.66,1.84-5.4H43.8c0.19,1.93,0.59,3.8,1.3,5.45L45.38,24H6.62L6.92,23.4z M38,57.69c0,0.17-0.14,0.31-0.31,0.31   H14.31C14.14,58,14,57.86,14,57.69V56h24V57.69z M46,44.92c-3.44-0.52-5-3.73-5-6.92c0-2.76-2.24-5-5-5s-5,2.24-5,5s2.24,5,5,5   c1.39,0,2.64-0.57,3.55-1.49c1.01,3.03,3.36,5.06,6.45,5.42V51c0,1.65-1.35,3-3,3h-3H12H9c-1.65,0-3-1.35-3-3V31h40V44.92z M39,38   c0,1.65-1.35,3-3,3s-3-1.35-3-3s1.35-3,3-3S39,36.35,39,38z M50,28c0,0.55-0.45,1-1,1h-2H5H3c-0.55,0-1-0.45-1-1v-0.92   c0-0.55,0.45-1,1-1h46c0.55,0,1,0.45,1,1V28z"></path><path d="M12.13,46.49C12.13,46.49,12.13,46.49,12.13,46.49c1.52,3.62,4.37,5.53,8.24,5.53c2.47,0,4.69-0.79,5.59-1.16   c0.91,0.37,3.12,1.16,5.59,1.16c3.9,0,6.77-1.94,8.28-5.61c0.21-0.5-0.02-1.07-0.51-1.29c-0.49-0.22-1.07-0.01-1.31,0.47   c-0.28,0.58-1.05,1.2-1.87,1.03c-0.97-0.21-1.96-0.68-2.92-1.41c-1.06-0.8-2.17-1.2-3.3-1.2c-1.76,0-3.14,0.98-3.95,1.74   c-0.81-0.77-2.2-1.74-3.95-1.74c-1.13,0-2.25,0.41-3.3,1.2c-0.96,0.73-1.95,1.2-2.92,1.41c-0.75,0.16-1.5-0.24-1.83-0.93   c0-0.01-0.01-0.03-0.01-0.04c-0.01-0.02-0.03-0.07-0.04-0.09c-0.02-0.04-0.04-0.08-0.06-0.12c-0.27-0.41-0.79-0.56-1.25-0.36   c-0.49,0.22-0.71,0.79-0.51,1.29L12.13,46.49z M16.2,48.57c1.26-0.27,2.51-0.86,3.71-1.77c0.7-0.53,1.41-0.8,2.1-0.8   c1.8,0,3.13,1.8,3.14,1.81c0.19,0.26,0.49,0.41,0.81,0.42c0,0,0,0,0,0c0.32,0,0.62-0.15,0.81-0.41C26.79,47.8,28.12,46,29.92,46   c0.69,0,1.39,0.27,2.1,0.8c1.2,0.91,2.45,1.5,3.71,1.77c0.06,0.01,0.11,0.02,0.17,0.03c-1.15,0.94-2.6,1.42-4.34,1.42   c-2.7,0-5.14-1.14-5.16-1.16c-0.14-0.06-0.28-0.1-0.43-0.1c-0.15,0-0.3,0.03-0.43,0.1c-0.02,0.01-2.44,1.15-5.16,1.15   c-1.74,0-3.19-0.47-4.34-1.41C16.09,48.59,16.15,48.58,16.2,48.57z"></path><circle cx="17" cy="38" r="1"></circle></g></svg>